<svg width="154" height="154" viewBox="0 0 40.746 40.746" xmlns="http://www.w3.org/2000/svg">
  <defs>
    <clipPath clipPathUnits="userSpaceOnUse" id="a" />
    <clipPath clipPathUnits="userSpaceOnUse" id="d" />
    <clipPath clipPathUnits="userSpaceOnUse" id="c" />
    <clipPath clipPathUnits="userSpaceOnUse" id="b" />
    <clipPath clipPathUnits="userSpaceOnUse" id="e" />
  </defs>
  <path
    d="M475.765 180.111c0-32.025-25.961-57.986-57.986-57.986-32.024 0-57.985 25.961-57.985 57.986s25.96 57.986 57.985 57.986 57.986-25.96 57.986-57.986"
    style="display:inline;fill:#2c3e50;fill-opacity:1;fill-rule:nonzero;stroke:none"
    transform="matrix(.35135 0 0 -.35134 -126.412 83.654)" />
  <path style="display:inline;fill:#fff;fill-opacity:1;fill-rule:nonzero;stroke:none"
    d="M447.106 218.28c-21.006-4.056-34.227-16.308-42.1-27.164l.008.025c-6.152-8.236-8.92-14.526-10.066-19.135-1.238-3.8-.924-6.726-.29-8.703.235-.806.475-1.22.475-1.22.552-1.188 1.118-1.803 1.118-1.803 6.403-7.82 21.47-8.382 21.47-8.382 14.688-.515 24.616 10.503 24.616 10.503-30.509 18.175 4.769 55.88 4.769 55.88zm12.255-56.004c-10.934 0-13.773-14.814-32.033-18.225v-8.165c20.428 2.787 24.954 17.349 31.865 17.349 2.282 0 5.14-1.293 8.309-2.962a57.78 57.78 0 0 1 3.749 7.374c-4.046 2.547-7.987 4.629-11.89 4.629zm-83.162-.001c-3.905 0-7.846-2.08-11.891-4.628a57.78 57.78 0 0 1 3.749-7.374c3.168 1.669 6.026 2.962 8.308 2.962 6.912 0 11.437-14.56 31.864-17.349v8.165c-18.258 3.41-21.097 18.224-32.03 18.224zm37.17-18.223v-8.144h8.881v8.144h-8.88z"
    transform="matrix(.35135 0 0 -.35134 -126.412 83.654)" />
</svg>