<svg width="154.629" height="154.629" viewBox="0 0 40.912 40.912" xmlns="http://www.w3.org/2000/svg">
  <defs>
    <clipPath clipPathUnits="userSpaceOnUse" id="a" />
  </defs>
  <path
    style="display:inline;fill:#2c3e50;fill-opacity:1;fill-rule:nonzero;stroke:none;stroke-width:.352778"
    d="M354.463 132.36c-11.297 0-20.456 9.16-20.456 20.457 0 2.81.567 5.488 1.593 7.926 1.427-.898 2.817-1.634 4.195-1.634 3.856 0 4.859 5.226 11.3 6.43v2.88c-7.207-.984-8.804-6.12-11.242-6.12-.804 0-1.814.46-2.93 1.048 3.578 5.947 10.094 9.926 17.54 9.926 7.447 0 13.963-3.98 17.541-9.927-1.116-.588-2.127-1.047-2.93-1.047-2.439 0-4.036 5.137-11.242 6.12v-2.88c6.441-1.204 7.443-6.43 11.3-6.43 1.377 0 2.768.736 4.195 1.634a20.391 20.391 0 0 0 1.593-7.926c0-11.298-9.16-20.456-20.457-20.456zm10.346 6.992s-12.445 13.301-1.682 19.713c0 0-3.502 3.887-8.684 3.705 0 0-5.316-.197-7.574-2.956 0 0-.199-.22-.394-.64v.003s-.086-.147-.17-.433c-.223-.698-.332-1.73.105-3.07.387-1.554 1.312-3.658 3.287-6.377.047-.068.096-.135.144-.203.042-.058.076-.11.119-.167l-.003.008c2.778-3.83 7.442-8.152 14.852-9.583zm-11.902 26.186h3.134v2.873h-3.134z"
    transform="translate(-334.007 -132.361)" />
  <path style="display:inline;fill:#fff;fill-opacity:1;fill-rule:nonzero;stroke:none"
    transform="matrix(.35278 0 0 -.35278 40.912 20.456)"
    d="M-57.987 57.986c-32.024 0-57.984-25.96-57.984-57.986a57.803 57.803 0 0 1 4.515-22.468c4.044 2.547 7.985 4.632 11.89 4.632 10.933 0 13.774-14.814 32.032-18.224v-8.165c-20.427 2.788-24.955 17.348-31.867 17.348-2.28 0-5.142-1.304-8.305-2.97 10.142-16.86 28.612-28.139 49.72-28.139s39.58 11.28 49.722 28.14c-3.164 1.667-6.028 2.97-8.307 2.97-6.911 0-11.438-14.562-31.866-17.349v8.164c18.26 3.41 21.099 18.225 32.033 18.225 3.903 0 7.845-2.086 11.89-4.632A57.803 57.803 0 0 1 .001 0c0 32.025-25.963 57.986-57.988 57.986Zm29.328-19.816S-63.936.465-33.427-17.71c0 0-9.928-11.018-24.615-10.503 0 0-15.069.56-21.472 8.38 0 0-.563.624-1.115 1.813l-.003-.008s-.243.417-.479 1.23c-.632 1.978-.943 4.903.296 8.7 1.098 4.406 3.72 10.37 9.318 18.078.134.191.271.384.409.576.12.162.214.31.337.473l-.009-.023c7.874 10.856 21.095 23.106 42.101 27.164zm-33.737-74.228h8.883v-8.145h-8.883zM0 0c0-32.025-25.961-57.986-57.986-57.986-32.024 0-57.985 25.961-57.985 57.986s25.961 57.986 57.985 57.986C-25.961 57.986 0 32.025 0 0" />
</svg>