<svg width="181" height="35" viewBox="0 0 181 35" fill="none" xmlns="http://www.w3.org/2000/svg">
<path d="M10.4294 23.7538V15.444H6.29492V27.9249H18.6716V23.7538H10.4294Z" fill="#009ADE"/>
<path d="M26.9139 7.10199H6.29492V13.3397H10.4028V11.2998H22.8061V23.7538H20.7255V27.9248H26.9139V7.10199Z" fill="#003764"/>
<path d="M32.3789 7.34894H38.679V22.6641H47.6981V27.9249H32.3789V7.34894Z" fill="#003764"/>
<path d="M50.3899 7.34894H66.1508V12.6097H56.6634V15.1864H64.7939V20.0874H56.6634V27.9249H50.3633V7.34894H50.3899Z" fill="#003764"/>
<path d="M82.3854 28.0376H70.9824V7.29523H82.3854V8.63725H72.451V16.4747H81.832V17.8167H72.451V26.717H82.3854V28.0322V28.0376Z" fill="#009ADE"/>
<path d="M102.248 28.0376H100.779L88.4293 9.61961H88.3176C88.4293 11.8044 88.4825 13.4524 88.4825 14.5744V28.0107H87.0938V7.29523H88.5358L100.886 25.6863H100.971C100.886 23.9793 100.833 22.3527 100.833 20.8443V7.29523H102.248V28.0376Z" fill="#009ADE"/>
<path d="M119.563 28.0376H108.16V7.29523H119.563V8.63725H109.629V16.4747H119.01V17.8167H109.629V26.717H119.563V28.0322V28.0376Z" fill="#009ADE"/>
<path d="M125.725 18.9977V28.0376H124.283V7.29523H129.248C131.828 7.29523 133.744 7.77299 134.989 8.72314C136.24 9.67329 136.846 11.1012 136.846 13.0069C136.846 14.408 136.484 15.5836 135.734 16.5337C134.984 17.4839 133.877 18.1871 132.376 18.579L138.038 28.0107H136.261L130.876 18.9708H125.715V18.9977H125.725ZM125.725 17.7684H129.695C131.445 17.7684 132.829 17.3765 133.776 16.5928C134.75 15.809 135.218 14.6603 135.218 13.1518C135.218 11.6434 134.744 10.4356 133.803 9.71087C132.861 8.98081 131.307 8.62115 129.141 8.62115H125.731V17.7738L125.725 17.7684Z" fill="#009ADE"/>
<path d="M149.616 17.3443H157.135V26.5828C155.166 27.4202 152.947 27.8443 150.473 27.8443C147.253 27.8443 144.785 26.9478 143.092 25.128C141.4 23.3083 140.512 20.7584 140.512 17.457C140.512 15.3849 140.927 13.5652 141.789 11.9708C142.651 10.3765 143.869 9.14185 145.45 8.27759C147.03 7.40795 148.86 6.9624 150.914 6.9624C153.133 6.9624 155.134 7.38111 156.906 8.1917L156.32 9.48004C154.543 8.66946 152.713 8.25075 150.824 8.25075C148.131 8.25075 145.998 9.06133 144.444 10.7147C142.89 12.3681 142.087 14.5797 142.087 17.3765C142.087 20.4256 142.837 22.7231 144.332 24.2638C145.827 25.8044 148.025 26.5613 150.936 26.5613C152.825 26.5613 154.405 26.309 155.709 25.7776V18.6649H149.632V17.3497H149.605L149.616 17.3443Z" fill="#009ADE"/>
<path d="M167.069 18.579L173.146 7.29523H174.699L167.793 19.9478V27.9248H166.292V20.0606L159.354 7.29523H161.019L167.069 18.579Z" fill="#009ADE"/>
</svg>
