<svg width="116.068" height="15.882" viewBox="0 0 30.71 4.202" xml:space="preserve"
  xmlns:xlink="http://www.w3.org/1999/xlink" xmlns="http://www.w3.org/2000/svg"><defs><path id="a" d="M166.153 305.419h399.583v254.907H166.153z"/><path id="b" d="M79.954 79.11H0V.469h79.954z"/><path id="c" d="M79.954.469V79.11H0V.469z"/></defs><path style="font-weight:700;font-size:4.23333px;line-height:1.25;font-family:'Space Grotesk';-inkscape-font-specification:'Space Grotesk Bold';letter-spacing:0;word-spacing:0;fill:#3b52ff;stroke-width:.264583" d="M73.097 114.024v-2.455h-.863v-.508h2.286v.508h-.864v2.455zm1.533 0v-2.1h.525v.237h.076q.046-.127.152-.186.11-.06.254-.06h.254v.475h-.262q-.203 0-.335.11-.13.106-.13.33v1.194zm1.676 0v-2.1h.533v2.1zm.267-2.345q-.144 0-.246-.093-.097-.094-.097-.246t.097-.246q.102-.093.246-.093.148 0 .245.093.098.094.098.246t-.098.246q-.097.093-.245.093zm1.511 2.404q-.224 0-.402-.076-.178-.08-.284-.229-.101-.152-.101-.368t.101-.36q.106-.148.288-.22.186-.076.423-.076h.576v-.119q0-.148-.093-.241-.093-.097-.296-.097-.2 0-.297.093-.097.089-.127.233l-.49-.166q.05-.16.16-.292.115-.135.3-.216.191-.084.462-.084.415 0 .656.207.242.208.242.601v.784q0 .127.118.127h.17v.44h-.356q-.157 0-.258-.076-.102-.077-.102-.204v-.004h-.08q-.017.051-.077.136-.059.08-.186.144-.127.063-.347.063zm.093-.432q.225 0 .364-.122.144-.127.144-.335v-.042h-.537q-.149 0-.233.063-.085.064-.085.178 0 .114.089.186t.258.072zm1.558-.669v-.067q0-.33.131-.563.132-.237.347-.36.22-.127.479-.127.288 0 .436.102.148.101.216.211h.076v-.254h.525v2.472q0 .216-.127.343-.127.132-.339.132h-1.405v-.466h1.219q.118 0 .118-.127v-.546h-.076q-.042.068-.118.14-.076.067-.203.114-.127.046-.322.046-.258 0-.479-.122-.215-.127-.347-.36-.13-.237-.13-.567zm1.11.585q.245 0 .41-.157.165-.157.165-.44v-.043q0-.287-.165-.44-.161-.156-.41-.156-.246 0-.411.156-.166.153-.166.44v.043q0 .283.166.44.165.157.41.157zm2.65.516q-.314 0-.555-.131-.237-.136-.373-.377-.131-.245-.131-.576v-.05q0-.33.131-.572.131-.245.368-.377.238-.135.55-.135.31 0 .538.14.229.135.356.38.127.242.127.564v.182h-1.528q.008.216.16.351.153.135.373.135.225 0 .33-.097.106-.097.161-.216l.436.229q-.059.11-.173.241-.11.127-.297.22-.186.09-.474.09zm-.513-1.35h.982q-.017-.182-.148-.292-.127-.11-.334-.11-.216 0-.343.11-.127.11-.157.292z" aria-label="Triage" transform="translate(-53.796 -110.669)"/><path style="font-weight:700;font-size:4.23333px;line-height:1.25;font-family:'Space Grotesk';-inkscape-font-specification:'Space Grotesk Bold';letter-spacing:0;word-spacing:0;fill:#00e6a7;stroke-width:.264583" d="M58.61 114.027q-.55 0-.872-.305-.322-.309-.322-.88v-.711q0-.572.322-.877.322-.309.872-.309.546 0 .843.3.3.297.3.818v.025h-.55v-.042q0-.262-.148-.432-.144-.17-.445-.17-.296 0-.466.183-.169.182-.169.495v.728q0 .31.17.496.169.182.465.182.3 0 .445-.17.148-.173.148-.431v-.077h.55v.06q0 .52-.3.82-.297.297-.843.297zm1.617-.06v-2.962h.534v2.963zm1.126 0v-2.099h.534v2.1zm.267-2.344q-.144 0-.245-.093-.098-.094-.098-.246t.098-.246q.101-.093.245-.093.148 0 .246.093.097.094.097.246t-.097.246q-.098.093-.246.093zm.86 2.345v-2.1h.524v.229h.077q.055-.106.182-.182.127-.08.334-.08.224 0 .36.088.135.085.207.225h.076q.072-.136.204-.225.13-.089.372-.089.195 0 .352.085.16.08.254.25.097.165.097.419v1.38h-.533v-1.342q0-.174-.09-.258-.088-.09-.25-.09-.181 0-.283.12-.097.114-.097.33v1.24h-.534v-1.342q0-.174-.088-.258-.09-.09-.25-.09-.182 0-.284.12-.097.114-.097.33v1.24zm4.267.06q-.225 0-.403-.077-.177-.08-.283-.229-.102-.152-.102-.368t.102-.36q.106-.148.288-.22.186-.076.423-.076h.576v-.119q0-.148-.093-.24-.094-.098-.297-.098-.199 0-.296.093-.097.089-.127.233l-.491-.165q.05-.161.16-.293.115-.135.301-.215.19-.085.462-.085.415 0 .656.207.241.208.241.601v.784q0 .127.119.127h.17v.44h-.357q-.156 0-.258-.076-.101-.077-.101-.204v-.004h-.08q-.018.051-.077.136-.06.08-.186.144-.127.063-.347.063zm.093-.433q.224 0 .364-.122.144-.127.144-.335v-.042h-.538q-.148 0-.233.063-.084.064-.084.178 0 .115.088.186.09.072.259.072zm2.353.373q-.207 0-.338-.127-.127-.131-.127-.347v-1.186h-.525v-.44h.525v-.652h.533v.652h.576v.44h-.576v1.093q0 .127.119.127h.406v.44zm2.007.06q-.313 0-.555-.132-.237-.135-.372-.377-.131-.245-.131-.576v-.05q0-.33.13-.572.132-.245.37-.377.236-.135.55-.135.309 0 .537.14.229.135.356.38.127.242.127.564v.182h-1.528q.008.216.16.351.153.136.373.136.224 0 .33-.098.106-.097.161-.216l.436.229q-.06.11-.173.241-.11.127-.297.22-.186.09-.474.09zm-.512-1.351h.982q-.017-.182-.148-.292-.127-.11-.335-.11-.216 0-.343.11-.127.11-.156.292z" aria-label="Climate" transform="translate(-53.796 -110.669)"/><g style="fill:none;fill-rule:evenodd;stroke:none;stroke-width:1"><g style="fill:none;fill-rule:evenodd;stroke:none;stroke-width:1"><g transform="matrix(.0219 0 0 .0219 0 -.01)"><mask id="d" fill="#fff"><use xlink:href="#c"/></mask><path d="M34.243 79.11H0C0 35.747 35.867.469 79.954.469v33.68c-25.205 0-45.71 20.17-45.71 44.96" fill="#3b52ff" mask="url(#d)"/></g><path d="M3.264 3.604a1.744 1.744 0 0 1-1.753-1.73h.751c0 .545.45.989 1.002.989z" fill="#00e6a7"/></g></g></svg>